#!OML:ASF E:\acrobat2\Project_11_07_03\Capture day 1\Session 1\Acrobat.ASF
:FULLY-SPECIFIED
:DEGREES
871
root 8.92296 6.16859 2.05907 94.7747 -4.65057 -75.2616
lowerback 11.3075 -5.01007 4.29449
upperback 3.4424 -6.21373 5.67847
thorax -2.50539 -3.23556 4.35977
lowerneck -2.39526 1.56392 -2.11978
upperneck -17.2082 3.97721 19.2659
head -5.09579 0.636736 6.40454
rclavicle 1.41932e-013 -1.36764e-013
rhumerus -17.8978 8.78975 -76.6302
rradius 94.9714
rwrist -1.72659
rhand 0.262872 -9.42308
rfingers 7.12502
rthumb 25.8421 -37.6874
lclavicle 1.41932e-013 -1.36764e-013
lhumerus 13.7896 -4.81659 111.177
lradius 107.277
lwrist 24.8221
lhand -21.6377 -11.2043
lfingers 7.12502
lthumb 4.75862 18.7223
rfemur -43.9552 16.2525 7.63549
rtibia 57.7993
rfoot 367.725 -23.0728
rtoes 42.419
lfemur -20.7536 5.01675 -31.2225
ltibia 9.65679
lfoot 10.8157 -0.820058
ltoes -7.4771
872
root 8.92199 6.17218 2.05629 94.7954 -4.6398 -75.3267
lowerback 11.2415 -5.00672 4.313
upperback 3.40887 -6.20973 5.66151
thorax -2.50878 -3.23258 4.3265
lowerneck -1.94368 1.68442 -1.85814
upperneck -18.058 4.23502 18.8845
head -5.46398 0.688229 6.24645
rclavicle -6.36111e-014 8.5875e-014
rhumerus -16.4558 8.58422 -75.8417
rradius 95.222
rwrist -2.29175
rhand -0.665055 -10.0208
rfingers 7.12502
rthumb 24.9532 -38.4116
lclavicle -6.36111e-014 8.5875e-014
lhumerus 13.6922 -4.76005 111.071
lradius 107.175
lwrist 24.7276
lhand -21.4599 -11.1407
lfingers 7.12502
lthumb 4.93032 18.7819
rfemur -44.0424 16.5145 7.4933
rtibia 57.7135
rfoot 367.536 -23.1208
rtoes 42.3727
lfemur -20.7751 4.99544 -31.1532
ltibia 9.66118
lfoot 10.8591 -0.780443
ltoes -6.81556
873
root 8.92149 6.1757 2.05289 94.8399 -4.67477 -75.374
lowerback 11.1388 -5.00556 4.28838
upperback 3.37271 -6.21508 5.62186
thorax -2.49279 -3.23324 4.29048
lowerneck -1.48663 1.8149 -1.59193
upperneck -18.9038 4.50172 18.4716
head -5.83393 0.7476 6.07553
rclavicle -9.78021e-014 9.22361e-014
rhumerus -14.9635 8.37571 -75.1193
rradius 95.4895
rwrist -2.86572
rhand -1.77076 -10.6401
rfingers 7.12502
rthumb 23.8932 -39.1737
lclavicle -9.78021e-014 9.22361e-014
lhumerus 13.6031 -4.73021 110.941
lradius 107.059
lwrist 24.6533
lhand -21.2755 -11.1746
lfingers 7.12502
lthumb 5.10839 18.7438
rfemur -44.1575 16.7607 7.28213
rtibia 57.6464
rfoot 367.278 -23.204
rtoes 42.3891
lfemur -20.8297 4.98624 -31.1584
ltibia 9.68282
lfoot 10.9031 -0.774174
ltoes -6.36443
874
root 8.9213 6.17926 2.04947 94.8923 -4.74948 -75.4093
lowerback 11.0166 -5.00562 4.22333
upperback 3.34379 -6.22758 5.56134
thorax -2.45657 -3.23669 4.25303
lowerneck -1.05317 1.96003 -1.37103
upperneck -19.7291 4.78743 18.0913
head -6.19784 0.821231 5.92135
rclavicle -6.0033e-014 9.54166e-015
rhumerus -13.4129 8.16232 -74.465
rradius 95.7697
rwrist -3.38935
rhand -3.00675 -11.22
rfingers 7.12502
rthumb 22.7075 -39.9039
lclavicle -6.0033e-014 9.54166e-015
lhumerus 13.5404 -4.72945 110.792
lradius 106.927
lwrist 24.5879
lhand -21.1185 -11.2443
lfingers 7.12502
lthumb 5.25991 18.6704
rfemur -44.274 16.9946 7.01755
rtibia 57.5901
rfoot 366.956 -23.3428
rtoes 42.564
lfemur -20.8957 4.98145 -31.2244
ltibia 9.71365
lfoot 10.9311 -0.807376
ltoes -6.10335
875
root 8.92144 6.18277 2.04601 94.947 -4.85528 -75.4351
lowerback 10.8829 -5.00133 4.13079
upperback 3.32162 -6.23767 5.48188
thorax -2.40648 -3.23825 4.20878
lowerneck -0.660795 2.11293 -1.2144
upperneck -20.5083 5.08255 17.7761
head -6.54431 0.905684 5.79786
rclavicle -7.35503e-014 3.33958e-014
rhumerus -11.8236 7.9371 -73.8703
rradius 96.0677
rwrist -3.82675
rhand -4.34387 -11.7191
rfingers 7.12502
rthumb 21.4237 -40.5546
lclavicle -7.35503e-014 3.33958e-014
lhumerus 13.5005 -4.7721 110.636
lradius 106.781
lwrist 24.5169
lhand -21.0137 -11.2928
lfingers 7.12502
lthumb 5.36115 18.6194
rfemur -44.3826 17.2072 6.71653
rtibia 57.5423
rfoot 366.566 -23.5177
rtoes 42.8228
lfemur -20.9585 4.98039 -31.3378
ltibia 9.7335
lfoot 10.9474 -0.878694
ltoes -6.14718
876
root 8.92194 6.18622 2.04219 95.0072 -4.9664 -75.4503
lowerback 10.7394 -4.99482 4.03168
upperback 3.30025 -6.24583 5.39879
thorax -2.35 -3.23873 4.16308
lowerneck -0.371249 2.2708 -1.17035
upperneck -21.1555 5.37599 17.5717
head -6.83462 1.00481 5.72701
rclavicle -5.76476e-014 3.97569e-014
rhumerus -10.2126 7.72057 -73.3237
rradius 96.3929
rwrist -4.16178
rhand -5.79515 -12.1132
rfingers 7.12502
rthumb 20.0293 -41.1009
lclavicle -5.76476e-014 3.97569e-014
lhumerus 13.4801 -4.84323 110.492
lradius 106.623
lwrist 24.4212
lhand -20.9584 -11.2613
lfingers 7.12502
lthumb 5.41456 18.6495
rfemur -44.4847 17.395 6.41242
rtibia 57.5013
rfoot 366.137 -23.6895
rtoes 42.9867
lfemur -21.0305 4.9944 -31.4681
ltibia 9.75708
lfoot 10.9668 -0.98511
ltoes -6.44107
877
root 8.92254 6.18955 2.03832 95.0563 -5.06296 -75.4596
lowerback 10.6087 -4.98867 3.93527
upperback 3.28409 -6.2535 5.32298
thorax -2.29442 -3.23937 4.12458
lowerneck -0.306574 2.44902 -1.31175
upperneck -21.5378 5.68457 17.5891
head -7.00825 1.13839 5.75546
rclavicle 5.76476e-014 -1.03368e-013
rhumerus -8.57638 7.53251 -72.8201
rradius 96.7429
rwrist -4.4085
rhand -7.36513 -12.4097
rfingers 7.12502
rthumb 18.5196 -41.5482
lclavicle 5.76476e-014 -1.03368e-013
lhumerus 13.4819 -4.92397 110.362
lradius 106.457
lwrist 24.3026
lhand -20.9267 -11.1416
lfingers 7.12502
lthumb 5.44511 18.7684
rfemur -44.5568 17.5682 6.13908
rtibia 57.4593
rfoot 365.717 -23.8309
rtoes 42.9614
lfemur -21.0867 5.00992 -31.5813
ltibia 9.77518
lfoot 10.9765 -1.09735
ltoes -6.64409
878
root 8.92327 6.19244 2.03459 95.0836 -5.14666 -75.4597
lowerback 10.5055 -4.98118 3.84248
upperback 3.27434 -6.25719 5.24861
thorax -2.24741 -3.2382 4.08769
lowerneck -0.27928 2.61976 -1.50976
upperneck -21.8603 5.97865 17.6456
head -7.15717 1.273 5.80601
rclavicle 2.46493e-014 -3.18055e-014
rhumerus -6.92441 7.36715 -72.3612
rradius 97.1196
rwrist -4.60151
rhand -8.96711 -12.6522
rfingers 7.12502
rthumb 16.9781 -41.9302
lclavicle 2.46493e-014 -3.18055e-014
lhumerus 13.4937 -5.02624 110.24
lradius 106.288
lwrist 24.177
lhand -20.8853 -10.9809
lfingers 7.12502
lthumb 5.48505 18.9281
rfemur -44.5877 17.7227 5.89876
rtibia 57.4132
rfoot 365.324 -23.9415
rtoes 42.814
lfemur -21.1237 5.01895 -31.6759
ltibia 9.80354
lfoot 10.9724 -1.21243
ltoes -6.65081
879
root 8.92418 6.19466 2.03119 95.0906 -5.21623 -75.444
lowerback 10.4298 -4.97436 3.76067
upperback 3.26632 -6.25846 5.17202
thorax -2.21508 -3.2358 4.04506
lowerneck -0.317377 2.78048 -1.77742
upperneck -22.0887 6.25521 17.7797
head -7.26592 1.4086 5.89399
rclavicle 9.54166e-015 6.99722e-014
rhumerus -5.26836 7.22745 -71.9506
rradius 97.5308
rwrist -4.76574
rhand -10.4682 -12.904
rfingers 7.12502
rthumb 15.5327 -42.3002
lclavicle 9.54166e-015 6.99722e-014
lhumerus 13.501 -5.15332 110.122
lradius 106.116
lwrist 24.0559
lhand -20.8107 -10.8317
lfingers 7.12502
lthumb 5.5571 19.0754
rfemur -44.5811 17.8532 5.69132
rtibia 57.3627
rfoot 364.942 -24.0341
rtoes 42.6486
lfemur -21.1355 5.02319 -31.7527
ltibia 9.82404
lfoot 10.9936 -1.31795
ltoes -6.38964
880
root 8.92481 6.19636 2.02871 95.0703 -5.274 -75.421
lowerback 10.3886 -4.96688 3.68286
upperback 3.26112 -6.25592 5.09153
thorax -2.19961 -3.23143 3.99923
lowerneck -0.37794 2.91665 -2.03641
upperneck -22.2609 6.48825 17.9051
head -7.3479 1.52839 5.978
rclavicle 7.59357e-014 -9.06458e-014
rhumerus -3.60821 7.12217 -71.5951
rradius 97.9727
rwrist -4.91109
rhand -11.7718 -13.2198
rfingers 7.12502
rthumb 14.2769 -42.7091
lclavicle 7.59357e-014 -9.06458e-014
lhumerus 13.4965 -5.29699 110.007
lradius 105.942
lwrist 23.9566
lhand -20.6962 -10.7295
lfingers 7.12502
lthumb 5.66765 19.1747
rfemur -44.5293 17.9685 5.52061
rtibia 57.3083
rfoot 364.581 -24.1015
rtoes 42.5303
lfemur -21.1062 5.02122 -31.8089
ltibia 9.82445
lfoot 11.0569 -1.391
ltoes -5.86076
881
root 8.92495 6.1977 2.02729 95.0298 -5.31663 -75.3991
lowerback 10.375 -4.95558 3.6085
upperback 3.25671 -6.24592 5.00703
thorax -2.19951 -3.22325 3.94934
lowerneck -0.407135 3.01229 -2.18264
upperneck -22.4228 6.64577 17.9052
head -7.41811 1.61182 6.0012
rclavicle 1.78906e-014 -2.54444e-014
rhumerus -1.94937 7.05928 -71.3034
rradius 98.4309
rwrist -5.02947
rhand -12.8556 -13.569
rfingers 7.12502
rthumb 13.2324 -43.129
lclavicle 1.78906e-014 -2.54444e-014
lhumerus 13.4749 -5.45385 109.89
lradius 105.76
lwrist 23.8977
lhand -20.5522 -10.7088
lfingers 7.12502
lthumb 5.80666 19.1916
rfemur -44.4463 18.0773 5.38917
rtibia 57.2564
rfoot 364.305 -24.1284
rtoes 42.5178
lfemur -21.0366 4.99991 -31.8357
ltibia 9.79079
lfoot 11.1497 -1.42272
ltoes -5.16055
